{"title":"Dangerous Khiladi 2013 Hindi Movies HDDVD Rip XviD New Source Sa","uid":8242428,"size":738566202,"categoryP":"video","categoryS":"movies","magnet":"?xt=urn:btih:03d784a2e03ffdf6ab755ec947f9853043819904&amp;dn=Dangerous+Khiladi+2013+Hindi+Movies+HDDVD+Rip+XviD+New+Source+Sa&amp;tr=udp%3A%2F%2Ftracker.openbittorrent.com%3A80&amp;tr=udp%3A%2F%2Fopen.demonii.com%3A1337&amp;tr=udp%3A%2F%2Ftracker.coppersurfer.tk%3A6969&amp;tr=udp%3A%2F%2Fexodus.desync.com%3A6969","seeders":2,"leechers":0,"uploader":"basicssom","files":2,"time":1362988927,"description":"Dangerous Khiladi 2013 Hindi Movies HDDVD Rip XviD New Source Sample Included ~ rDX\n\nScreen Shots :\n &lt;a href=&quot;\nhttp://myimghosting.serveftp.com/13/DangerousKhiladi.html&quot; rel=&quot;nofollow&quot; target=&quot;_NEW&quot;&gt;\nhttp://myimghosting.serveftp.com/13/DangerousKhiladi.html&lt;/a&gt;\n &lt;a href=&quot;\nhttp://myimghost.cwahi.net/DangerousKhiladi.html&quot; rel=&quot;nofollow&quot; target=&quot;_NEW&quot;&gt;\nhttp://myimghost.cwahi.net/DangerousKhiladi.html&lt;/a&gt;\n\n\nFormat                                   : AVI\nFormat/Info                              : Audio Video Interleave\nFile size                                : 696 MiB\nDuration                                 : 2h 6mn\nOverall bit rate mode                    : Variable\nOverall bit rate                         : 770 Kbps\nWriting library                          : MPlayer\n\nVideo\nID                                       : 0\nFormat                                   : MPEG-4 Visual\nFormat profile                           : Advanced Simple@L5\nFormat settings, BVOP                    : 2\nFormat settings, QPel                    : No\nFormat settings, GMC                     : No warppoints\nFormat settings, Matrix                  : Default (H.263)\nCodec ID                                 : XVID\nCodec ID/Hint                            : XviD\nDuration                                 : 2h 6mn\nBit rate                                 : 692 Kbps\nWidth                                    : 640 pixels\nHeight                                   : 272 pixels\nDisplay aspect ratio                     : 2.35:1\nFrame rate                               : 25.000 fps\nColor space                              : YUV\nChroma subsampling                       : 4:2:0\nBit depth                                : 8 bits\nScan type                                : Progressive\nCompression mode                         : Lossy\nBits/(Pixel*Frame)                       : 0.159\nStream size                              : 625 MiB (90%)\nWriting library                          : XviD 1.2.1 (UTC 2008-12-04)\n\nAudio\nID                                       : 1\nFormat                                   : MPEG Audio\nFormat version                           : Version 1\nFormat profile                           : Layer 3\nMode                                     : Joint stereo\nMode extension                           : MS Stereo\nCodec ID                                 : 55\nCodec ID/Hint                            : MP3\nDuration                                 : 2h 6mn\nBit rate mode                            : Variable\nBit rate                                 : 67.9 Kbps\nChannel(s)                               : 2 channels\nSampling rate                            : 32.0 KHz\nCompression mode                         : Lossy\nStream size                              : 61.3 MiB (9%)\nAlignment                                : Aligned on interleaves\nInterleave, duration                     : 36 ms (0.90 video frame)\nInterleave, preload duration             : 560 ms","torrent":{"xt":"urn:btih:03d784a2e03ffdf6ab755ec947f9853043819904","amp;dn":"Dangerous+Khiladi+2013+Hindi+Movies+HDDVD+Rip+XviD+New+Source+Sa","amp;tr":["udp%3A%2F%2Ftracker.openbittorrent.com%3A80","udp%3A%2F%2Fopen.demonii.com%3A1337","udp%3A%2F%2Ftracker.coppersurfer.tk%3A6969","udp%3A%2F%2Fexodus.desync.com%3A6969"],"infoHash":"03d784a2e03ffdf6ab755ec947f9853043819904","infoHashBuffer":{"type":"Buffer","data":[3,215,132,162,224,63,253,246,171,117,94,201,71,249,133,48,67,129,153,4]},"announce":[],"urlList":[]}}